<svg width="68" height="76" viewBox="0 0 68 76" version="1.1" xmlns="http://www.w3.org/2000/svg" xmlns:xlink="http://www.w3.org/1999/xlink">
<title>Canvas</title>
<desc>Created using Figma</desc>
<g id="Canvas" transform="translate(-1003 -845)">
<g id="Shape">
<use xlink:href="#path0_fill" transform="translate(1013 855)" fill="#F2F9FF"/>
</g>
<g id="Shape">
<use xlink:href="#path0_fill" transform="translate(1003 845)" fill="#FFFFFF"/>
<mask id="mask0_outline_ins">
<use xlink:href="#path0_fill" fill="white" transform="translate(1003 845)"/>
</mask>
<g mask="url(#mask0_outline_ins)">
<use xlink:href="#path1_stroke_2x" transform="translate(1003 845)" fill="#0087F5"/>
</g>
</g>
</g>
<defs>
<path id="path0_fill" d="M 15.8182 39.6949L 0 39.6949L 26.3636 66L 52.7273 39.6949L 36.9091 39.6949C 36.9091 39.6949 31.274 16.335 58 0.378912C 58 0.378912 37.6023 -3.59892 22.8214 14.2223C 22.82 14.221 15.2956 22.2952 15.8182 39.6949Z"/>
<path id="path1_stroke_2x" d="M 15.8182 39.6949L 15.8182 41.6949L 17.8791 41.6949L 17.8173 39.6349L 15.8182 39.6949ZM 0 39.6949L 0 37.6949L -4.83603 37.6949L -1.41264 41.1107L 0 39.6949ZM 26.3636 66L 24.951 67.4158L 26.3636 68.8253L 27.7763 67.4158L 26.3636 66ZM 52.7273 39.6949L 54.1399 41.1107L 57.5633 37.6949L 52.7273 37.6949L 52.7273 39.6949ZM 36.9091 39.6949L 34.9649 40.1639L 35.3342 41.6949L 36.9091 41.6949L 36.9091 39.6949ZM 58 0.378912L 59.0252 2.09615L 63.5136 -0.583532L 58.3828 -1.58411L 58 0.378912ZM 22.8214 14.2223L 21.4049 15.6342L 22.9571 17.1915L 24.3608 15.4991L 22.8214 14.2223ZM 15.8182 37.6949L 0 37.6949L 0 41.6949L 15.8182 41.6949L 15.8182 37.6949ZM -1.41264 41.1107L 24.951 67.4158L 27.7763 64.5842L 1.41264 38.2791L -1.41264 41.1107ZM 27.7763 67.4158L 54.1399 41.1107L 51.3146 38.2791L 24.951 64.5842L 27.7763 67.4158ZM 52.7273 37.6949L 36.9091 37.6949L 36.9091 41.6949L 52.7273 41.6949L 52.7273 37.6949ZM 36.9091 39.6949C 38.8533 39.2259 38.8536 39.227 38.8538 39.228C 38.8539 39.2282 38.8541 39.2291 38.8542 39.2296C 38.8542 39.2295 38.8546 39.2313 38.8546 39.2311C 38.8549 39.2324 38.8544 39.2304 38.8538 39.228C 38.852 39.2199 38.8504 39.2128 38.8469 39.1971C 38.8385 39.159 38.8286 39.1129 38.814 39.0392C 38.7821 38.8784 38.7425 38.6641 38.6964 38.3593C 38.5992 37.7218 38.4949 36.852 38.4441 35.705C 38.3355 33.3492 38.4467 30.2168 39.3741 26.4993C 41.1835 19.162 46.1395 9.78927 59.0252 2.09615L 56.9748 -1.33832C 43.1345 6.92467 37.5451 17.2099 35.4905 25.5416C 34.4859 29.6586 34.3355 33.3634 34.4483 35.8863C 34.5082 37.1786 34.6353 38.2584 34.7419 38.9607C 34.7977 39.3259 34.8531 39.629 34.8906 39.8182C 34.9108 39.9195 34.9293 40.0064 34.9406 40.0578C 34.947 40.0867 34.953 40.1134 34.9564 40.1279C 34.9584 40.1367 34.9605 40.1458 34.9616 40.1502C 34.9623 40.1532 34.9631 40.1567 34.9635 40.1582C 34.9637 40.1593 34.9641 40.1607 34.9642 40.1613C 34.9646 40.1627 34.9649 40.1639 36.9091 39.6949ZM 58 0.378912C 58.3828 -1.58411 58.3818 -1.58431 58.3807 -1.58452C 58.3802 -1.58461 58.3791 -1.58484 58.3781 -1.58502C 58.3769 -1.58526 58.3741 -1.5858 58.3716 -1.58628C 58.3678 -1.587 58.3603 -1.58842 58.3528 -1.58982C 58.3404 -1.59215 58.3178 -1.59629 58.2931 -1.60072C 58.2488 -1.60864 58.1745 -1.6215 58.0871 -1.63568C 57.9229 -1.66224 57.6618 -1.70139 57.3449 -1.74149C 56.733 -1.81847 55.7975 -1.91175 54.67 -1.96223C 52.4629 -2.05849 49.2319 -1.9894 45.604 -1.35157C 38.2969 -0.0544675 29.0369 3.59544 21.2819 12.9455L 24.3608 15.4991C 31.3868 7.02794 39.7161 3.75615 46.3031 2.58686C 49.6222 1.9915 52.4144 1.94122 54.4938 2.03389C 55.5096 2.07788 56.2831 2.15614 56.8445 2.22709C 57.1142 2.26095 57.3057 2.28986 57.4475 2.31286C 57.5132 2.32346 57.5552 2.33077 57.589 2.33681C 57.6033 2.33936 57.6102 2.34065 57.6175 2.34202C 57.6199 2.34246 57.6222 2.34291 57.621 2.34267C 57.621 2.34268 57.62 2.34248 57.62 2.34248C 57.6197 2.34242 57.619 2.34228 57.6188 2.34225C 57.618 2.3421 57.6172 2.34193 58 0.378912ZM 24.2378 12.8104C 22.8738 12.223 21.4484 12.768 21.4166 12.7987C 21.406 12.8092 21.39 12.8254 21.3844 12.8312C 21.3786 12.8371 21.3693 12.8469 21.3654 12.851C 21.361 12.8557 21.353 12.8643 21.348 12.8697C 21.3411 12.8771 21.3279 12.8915 21.3162 12.9045C 21.2973 12.9253 21.2633 12.9635 21.2275 13.0046C 21.1641 13.0776 21.0588 13.2021 20.9403 13.3491C 20.719 13.6245 20.378 14.073 19.9977 14.6326C 19.2679 15.7105 18.2507 17.4258 17.288 19.6384C 15.4208 23.9625 13.5711 30.7574 13.8191 39.755L 17.8173 39.6349C 17.5427 31.2327 19.1939 25.2906 20.9586 21.228C 21.8119 19.2473 22.6434 17.8568 23.3084 16.8774C 23.6255 16.4083 23.8685 16.0904 24.0569 15.8564C 24.1433 15.7489 24.1992 15.683 24.246 15.6294C 24.2652 15.6071 24.2735 15.5979 24.2831 15.5873C 24.2857 15.5844 24.2841 15.5861 24.2837 15.5866C 24.2851 15.5851 24.2719 15.5992 24.2745 15.5965C 24.2775 15.5933 24.2523 15.6196 24.2576 15.6141C 24.2522 15.6197 24.2364 15.6357 24.226 15.646C 24.1942 15.6767 22.7689 16.2216 21.4049 15.6342L 24.2378 12.8104Z"/>
</defs>
</svg>
