<svg width="79" height="91" viewBox="0 0 79 91" version="1.1" xmlns="http://www.w3.org/2000/svg" xmlns:xlink="http://www.w3.org/1999/xlink">
<title>color-pttrn</title>
<desc>Created using Figma</desc>
<g id="Canvas" transform="translate(-466 1154)">
<g id="color-pttrn">
<g id="Oval 2">
<mask id="mask0_outline_ins">
<use xlink:href="#path0_fill" fill="white" transform="matrix(0.866025 0.5 -0.5 0.866025 502.294 -1156.5)"/>
</mask>
<g mask="url(#mask0_outline_ins)">
<use xlink:href="#path1_stroke_2x" transform="matrix(0.866025 0.5 -0.5 0.866025 502.294 -1156.5)" fill="#2D95FF"/>
</g>
</g>
<g id="Rectangle 16">
<mask id="mask1_outline_ins">
<use xlink:href="#path2_fill" fill="white" transform="matrix(0.866025 0.5 -0.5 0.866025 476.785 -1082.32)"/>
</mask>
<g mask="url(#mask1_outline_ins)">
<use xlink:href="#path3_stroke_2x" transform="matrix(0.866025 0.5 -0.5 0.866025 476.785 -1082.32)" fill="#FFCC4D"/>
</g>
</g>
<g id="Triangle">
<mask id="mask2_outline_ins">
<use xlink:href="#path4_fill" fill="white" transform="matrix(0.866025 0.5 -0.5 0.866025 538.667 -1135.5)"/>
</mask>
<g mask="url(#mask2_outline_ins)">
<use xlink:href="#path5_stroke_2x" transform="matrix(0.866025 0.5 -0.5 0.866025 538.667 -1135.5)" fill="#08DCB6"/>
</g>
</g>
<g id="Rectangle 17">
<use xlink:href="#path6_fill" transform="matrix(0.866025 0.5 -0.5 0.866025 499.749 -1114.09)" fill="#556EFF"/>
</g>
<g id="Rectangle 18">
<use xlink:href="#path7_fill" transform="matrix(0.866025 0.5 -0.5 0.866025 472.464 -1114.83)" fill="#FF607F"/>
</g>
<g id="Rectangle 19">
<use xlink:href="#path8_fill" transform="matrix(0.866025 0.5 -0.5 0.866025 467 -1113.37)" fill="#FF607F"/>
</g>
</g>
</g>
<defs>
<path id="path0_fill" fill-rule="evenodd" d="M 7 14C 10.866 14 14 10.866 14 7C 14 3.13401 10.866 0 7 0C 3.13401 0 0 3.13401 0 7C 0 10.866 3.13401 14 7 14Z"/>
<path id="path1_stroke_2x" d="M 7 16C 11.9706 16 16 11.9706 16 7L 12 7C 12 9.76142 9.76142 12 7 12L 7 16ZM 16 7C 16 2.02944 11.9706 -2 7 -2L 7 2C 9.76142 2 12 4.23858 12 7L 16 7ZM 7 -2C 2.02944 -2 -2 2.02944 -2 7L 2 7C 2 4.23858 4.23858 2 7 2L 7 -2ZM -2 7C -2 11.9706 2.02944 16 7 16L 7 12C 4.23858 12 2 9.76142 2 7L -2 7Z"/>
<path id="path2_fill" fill-rule="evenodd" d="M 0 0L 14 0L 14 14L 0 14L 0 0Z"/>
<path id="path3_stroke_2x" d="M 0 0L 0 -2L -2 -2L -2 0L 0 0ZM 14 0L 16 0L 16 -2L 14 -2L 14 0ZM 14 14L 14 16L 16 16L 16 14L 14 14ZM 0 14L -2 14L -2 16L 0 16L 0 14ZM 0 2L 14 2L 14 -2L 0 -2L 0 2ZM 12 0L 12 14L 16 14L 16 0L 12 0ZM 14 12L 0 12L 0 16L 14 16L 14 12ZM 2 14L 2 0L -2 0L -2 14L 2 14Z"/>
<path id="path4_fill" fill-rule="evenodd" d="M 7 0L 14 14L 0 14L 7 0Z"/>
<path id="path5_stroke_2x" d="M 7 0L 8.78885 -0.894427L 7 -4.47214L 5.21115 -0.894427L 7 0ZM 14 14L 14 16L 17.2361 16L 15.7889 13.1056L 14 14ZM 0 14L -1.78885 13.1056L -3.23607 16L 0 16L 0 14ZM 5.21115 0.894427L 12.2111 14.8944L 15.7889 13.1056L 8.78885 -0.894427L 5.21115 0.894427ZM 14 12L 0 12L 0 16L 14 16L 14 12ZM 1.78885 14.8944L 8.78885 0.894427L 5.21115 -0.894427L -1.78885 13.1056L 1.78885 14.8944Z"/>
<path id="path6_fill" fill-rule="evenodd" d="M 0 0L 11 0L 11 2L 0 2L 0 0Z"/>
<path id="path7_fill" fill-rule="evenodd" d="M 0 0L 2 0L 2 10L 0 10L 0 0Z"/>
<path id="path8_fill" fill-rule="evenodd" d="M 0 0L 10 0L 10 2L 0 2L 0 0Z"/>
</defs>
</svg>
