<svg width="47" height="21" viewBox="0 0 47 21" version="1.1" xmlns="http://www.w3.org/2000/svg" xmlns:xlink="http://www.w3.org/1999/xlink">
<title>Logo</title>
<desc>Created using Figma</desc>
<g id="Canvas" transform="translate(-147 1285)">
<g id="Logo">
<use xlink:href="#path0_fill" transform="translate(145 -1289)" fill="#464646"/>
</g>
</g>
<defs>
<path id="path0_fill" d="M 4.24609 18.3135L 11.6582 18.3135L 11.6582 20L 2.17285 20L 2.17285 4.35938L 4.24609 4.35938L 4.24609 18.3135ZM 13.1729 14.0811C 13.1729 12.9424 13.3949 11.9183 13.8389 11.0088C 14.29 10.0993 14.9131 9.39746 15.708 8.90332C 16.5101 8.40918 17.4232 8.16211 18.4473 8.16211C 20.0299 8.16211 21.3083 8.70996 22.2822 9.80566C 23.2633 10.9014 23.7539 12.3587 23.7539 14.1777L 23.7539 14.3174C 23.7539 15.4489 23.5355 16.4658 23.0986 17.3682C 22.6689 18.2633 22.0495 18.9616 21.2402 19.4629C 20.4382 19.9642 19.5143 20.2148 18.4688 20.2148C 16.8932 20.2148 15.6149 19.667 14.6338 18.5713C 13.6598 17.4756 13.1729 16.0254 13.1729 14.2207L 13.1729 14.0811ZM 15.1709 14.3174C 15.1709 15.6064 15.4681 16.6413 16.0625 17.4219C 16.6641 18.2025 17.4661 18.5928 18.4688 18.5928C 19.4785 18.5928 20.2806 18.1989 20.875 17.4111C 21.4694 16.6162 21.7666 15.5062 21.7666 14.0811C 21.7666 12.8063 21.4622 11.7751 20.8535 10.9873C 20.252 10.1924 19.4499 9.79492 18.4473 9.79492C 17.4661 9.79492 16.6748 10.1852 16.0732 10.9658C 15.4717 11.7464 15.1709 12.8636 15.1709 14.3174ZM 25.7734 14.0918C 25.7734 12.2799 26.1924 10.8405 27.0303 9.77344C 27.8682 8.69922 28.9782 8.16211 30.3604 8.16211C 31.7783 8.16211 32.8848 8.66341 33.6797 9.66602L 33.7764 8.37695L 35.5918 8.37695L 35.5918 19.7207C 35.5918 21.2246 35.1442 22.4098 34.249 23.2764C 33.361 24.1429 32.165 24.5762 30.6611 24.5762C 29.8232 24.5762 29.0033 24.3971 28.2012 24.0391C 27.3991 23.681 26.7868 23.1904 26.3643 22.5674L 27.3955 21.375C 28.2477 22.4277 29.2897 22.9541 30.5215 22.9541C 31.4883 22.9541 32.2402 22.682 32.7773 22.1377C 33.3216 21.5934 33.5938 20.8271 33.5938 19.8389L 33.5938 18.8398C 32.7988 19.7565 31.7139 20.2148 30.3389 20.2148C 28.9782 20.2148 27.8753 19.667 27.0303 18.5713C 26.1924 17.4756 25.7734 15.9824 25.7734 14.0918ZM 27.7715 14.3174C 27.7715 15.6279 28.04 16.6592 28.5771 17.4111C 29.1143 18.1559 29.8662 18.5283 30.833 18.5283C 32.0863 18.5283 33.0065 17.959 33.5938 16.8203L 33.5938 11.5137C 32.985 10.4036 32.0719 9.84863 30.8545 9.84863C 29.8877 9.84863 29.1322 10.2246 28.5879 10.9766C 28.0436 11.7285 27.7715 12.8421 27.7715 14.3174ZM 38.0732 14.0811C 38.0732 12.9424 38.2952 11.9183 38.7393 11.0088C 39.1904 10.0993 39.8135 9.39746 40.6084 8.90332C 41.4105 8.40918 42.3236 8.16211 43.3477 8.16211C 44.9303 8.16211 46.2087 8.70996 47.1826 9.80566C 48.1637 10.9014 48.6543 12.3587 48.6543 14.1777L 48.6543 14.3174C 48.6543 15.4489 48.4359 16.4658 47.999 17.3682C 47.5693 18.2633 46.9499 18.9616 46.1406 19.4629C 45.3385 19.9642 44.4147 20.2148 43.3691 20.2148C 41.7936 20.2148 40.5153 19.667 39.5342 18.5713C 38.5602 17.4756 38.0732 16.0254 38.0732 14.2207L 38.0732 14.0811ZM 40.0713 14.3174C 40.0713 15.6064 40.3685 16.6413 40.9629 17.4219C 41.5645 18.2025 42.3665 18.5928 43.3691 18.5928C 44.3789 18.5928 45.181 18.1989 45.7754 17.4111C 46.3698 16.6162 46.667 15.5062 46.667 14.0811C 46.667 12.8063 46.3626 11.7751 45.7539 10.9873C 45.1523 10.1924 44.3503 9.79492 43.3477 9.79492C 42.3665 9.79492 41.5752 10.1852 40.9736 10.9658C 40.3721 11.7464 40.0713 12.8636 40.0713 14.3174Z"/>
</defs>
</svg>
