<svg width="68" height="76" viewBox="0 0 68 76" xmlns="http://www.w3.org/2000/svg" xmlns:xlink="http://www.w3.org/1999/xlink"><title>Canvas</title><desc>Created using Figma</desc><use xlink:href="#a" transform="translate(10 10)" fill="#F2F9FF"/><g transform="translate(-1003 -845)"><use xlink:href="#a" transform="translate(1003 845)" fill="#FFF"/><mask id="b"><use xlink:href="#a" fill="#fff" transform="translate(1003 845)"/></mask><g mask="url(#b)"><use xlink:href="#c" transform="translate(1003 845)" fill="#0087F5"/></g></g><defs><path id="a" d="M15.818 39.695H0L26.364 66l26.363-26.305H36.91S31.274 16.335 58 .379c0 0-20.398-3.978-35.179 13.843-.001-.001-7.525 8.073-7.003 25.473z"/><path id="c" d="M15.818 39.695v2h2.061l-.062-2.06-1.999.06zM0 39.695v-2h-4.836l3.423 3.416L0 39.695zM26.364 66l-1.413 1.416 1.413 1.41 1.412-1.41L26.364 66zm26.363-26.305l1.413 1.416 3.423-3.416h-4.836v2zm-15.818 0l-1.944.469.37 1.53h1.574v-2zM58 .379l1.025 1.717 4.489-2.68-5.131-1L58 .379zM22.821 14.222l-1.416 1.412 1.552 1.558 1.404-1.693-1.54-1.277zm-7.003 23.473H0v4h15.818v-4zm-17.23 3.416L24.95 67.416l2.825-2.832L1.413 38.28l-2.826 2.832zm29.188 26.305L54.14 41.11l-2.825-2.832L24.95 64.584l2.825 2.832zm24.951-29.721H36.91v4h15.818v-4zm-15.818 2a183.553 183.553 0 0 1 1.945-.465v-.002l-.007-.03a14.674 14.674 0 0 1-.15-.838 24.617 24.617 0 0 1-.253-2.655 31.65 31.65 0 0 1 .93-9.206c1.81-7.337 6.765-16.71 19.651-24.403l-2.05-3.434c-13.84 8.263-19.43 18.548-21.485 26.88-1.004 4.117-1.154 7.821-1.042 10.344a30.3 30.3 0 0 0 .294 3.075 20.485 20.485 0 0 0 .199 1.097 7.013 7.013 0 0 0 .02.092l.003.008v.003c0 .002 0 .003 1.945-.466zM58 .379c.383-1.963.382-1.963.38-1.964h-.002a1.213 1.213 0 0 0-.085-.016l-.206-.035a22.459 22.459 0 0 0-.742-.105 34.195 34.195 0 0 0-2.675-.221 42.698 42.698 0 0 0-9.066.61C38.297-.054 29.037 3.595 21.282 12.945L24.36 15.5C31.387 7.028 39.716 3.756 46.303 2.587a36.86 36.86 0 0 1 8.19-.553c1.017.044 1.79.122 2.351.193a16.611 16.611 0 0 1 .773.115h.004a.035.035 0 0 1-.002 0c-.001 0-.002 0 .381-1.963zM24.238 12.81c-1.364-.587-2.79-.042-2.821-.011l-.033.032-.019.02a5.782 5.782 0 0 0-.137.154 12.93 12.93 0 0 0-.288.344c-.221.275-.562.724-.942 1.284-.73 1.078-1.747 2.793-2.71 5.005-1.867 4.324-3.717 11.12-3.469 20.117l3.998-.12c-.274-8.402 1.377-14.344 3.142-18.407.853-1.98 1.684-3.371 2.35-4.35.316-.47.56-.788.748-1.022a6.94 6.94 0 0 1 .226-.269c.003-.003.001 0 0 0l-.009.01a2.978 2.978 0 0 0-.048.049c-.032.03-1.457.576-2.821-.012l2.833-2.824z"/></defs></svg>