<svg width="142" height="142" viewBox="0 0 142 142" xmlns="http://www.w3.org/2000/svg" xmlns:xlink="http://www.w3.org/1999/xlink"><title>logo-3</title><desc>Created using Figma</desc><g mask="url(#a)" transform="translate(-126 305)"><use xlink:href="#a" transform="translate(126 -305)" fill="#EDEDED"/></g><defs><path id="a" d="M3 1h136v-2H3v2zm138 2v136h2V3h-2zm-2 138H3v2h136v-2zM1 139V3h-2v136h2zM3-1a4 4 0 0 0-4 4h2a2 2 0 0 1 2-2v-2zm136 2a2 2 0 0 1 2 2h2a4 4 0 0 0-4-4v2zm2 138a2 2 0 0 1-2 2v2a4 4 0 0 0 4-4h-2zM3 141a2 2 0 0 1-2-2h-2a4 4 0 0 0 4 4v-2z"/></defs></svg>