<svg width="79" height="91" viewBox="0 0 79 91" xmlns="http://www.w3.org/2000/svg" xmlns:xlink="http://www.w3.org/1999/xlink"><title>color-pttrn</title><desc>Created using Figma</desc><g transform="translate(-466 1154)"><mask id="b"><use xlink:href="#a" fill="#fff" transform="rotate(30 2409.205 359.041)"/></mask><g mask="url(#b)"><use xlink:href="#c" transform="rotate(30 2409.205 359.041)" fill="#2D95FF"/></g></g><g transform="translate(-466 1154)"><mask id="e"><use xlink:href="#d" fill="#fff" transform="rotate(30 2258.029 348.531)"/></mask><g mask="url(#e)"><use xlink:href="#f" transform="rotate(30 2258.029 348.531)" fill="#FFCC4D"/></g></g><g transform="translate(-466 1154)"><mask id="h"><use xlink:href="#g" fill="#fff" transform="rotate(30 2388.205 437.414)"/></mask><g mask="url(#h)"><use xlink:href="#i" transform="rotate(30 2388.205 437.414)" fill="#08DCB6"/></g></g><use xlink:href="#j" transform="rotate(30 -57.598 82.932)" fill="#556EFF"/><use xlink:href="#k" transform="rotate(30 -69.86 31.647)" fill="#FF607F"/><use xlink:href="#l" transform="rotate(30 -75.317 22.181)" fill="#FF607F"/><defs><path id="a" fill-rule="evenodd" d="M7 14A7 7 0 1 0 7 0a7 7 0 0 0 0 14z"/><path id="c" d="M7 16a9 9 0 0 0 9-9h-4a5 5 0 0 1-5 5v4zm9-9a9 9 0 0 0-9-9v4a5 5 0 0 1 5 5h4zM7-2a9 9 0 0 0-9 9h4a5 5 0 0 1 5-5v-4zm-9 9a9 9 0 0 0 9 9v-4a5 5 0 0 1-5-5h-4z"/><path id="d" fill-rule="evenodd" d="M0 0h14v14H0V0z"/><path id="f" d="M0 0v-2h-2v2h2zm14 0h2v-2h-2v2zm0 14v2h2v-2h-2zM0 14h-2v2h2v-2zM0 2h14v-4H0v4zm12-2v14h4V0h-4zm2 12H0v4h14v-4zM2 14V0h-4v14h4z"/><path id="g" fill-rule="evenodd" d="M7 0l7 14H0L7 0z"/><path id="i" d="M7 0l1.789-.894L7-4.472 5.211-.894 7 0zm7 14v2h3.236l-1.447-2.894L14 14zM0 14l-1.789-.894L-3.236 16H0v-2zM5.211.894l7 14 3.578-1.788-7-14L5.21.894zM14 12H0v4h14v-4zM1.789 14.894l7-14L5.21-.894l-7 14 3.578 1.788z"/><path id="j" fill-rule="evenodd" d="M0 0h11v2H0V0z"/><path id="k" fill-rule="evenodd" d="M0 0h2v10H0V0z"/><path id="l" fill-rule="evenodd" d="M0 0h10v2H0V0z"/></defs></svg>