<svg width="47" height="21" viewBox="0 0 47 21" xmlns="http://www.w3.org/2000/svg" xmlns:xlink="http://www.w3.org/1999/xlink"><title>Logo</title><desc>Created using Figma</desc><use xlink:href="#a" transform="translate(-2 -4)" fill="#464646"/><defs><path id="a" d="M4.246 18.314h7.412V20H2.173V4.36h2.073v13.954zm8.927-4.233c0-1.139.222-2.163.666-3.072.451-.91 1.074-1.612 1.869-2.106.802-.494 1.715-.74 2.74-.74 1.582 0 2.86.547 3.834 1.643.981 1.095 1.472 2.553 1.472 4.372v.14c0 1.13-.219 2.148-.655 3.05-.43.895-1.05 1.594-1.859 2.095-.802.501-1.726.752-2.771.752-1.576 0-2.854-.548-3.835-1.644-.974-1.095-1.461-2.546-1.461-4.35v-.14zm1.998.236c0 1.29.297 2.324.892 3.105.601.78 1.403 1.17 2.406 1.17 1.01 0 1.812-.393 2.406-1.18.594-.796.892-1.906.892-3.33 0-1.276-.305-2.307-.913-3.095-.602-.795-1.404-1.192-2.407-1.192-.98 0-1.772.39-2.374 1.17-.601.781-.902 1.899-.902 3.352zm10.602-.225c0-1.812.42-3.252 1.257-4.319.838-1.074 1.948-1.61 3.33-1.61 1.418 0 2.525.5 3.32 1.503l.096-1.289h1.816v11.344c0 1.504-.448 2.689-1.343 3.555-.888.867-2.084 1.3-3.588 1.3a5.979 5.979 0 0 1-2.46-.537c-.802-.358-1.414-.849-1.837-1.472l1.031-1.192c.853 1.053 1.895 1.58 3.127 1.58.966 0 1.718-.273 2.255-.817.545-.545.817-1.31.817-2.3v-.998c-.795.916-1.88 1.375-3.255 1.375-1.36 0-2.464-.548-3.309-1.644-.838-1.095-1.257-2.589-1.257-4.48zm1.998.225c0 1.31.269 2.342.806 3.094.537.745 1.29 1.117 2.256 1.117 1.253 0 2.174-.569 2.76-1.708v-5.306c-.608-1.11-1.521-1.665-2.739-1.665-.966 0-1.722.376-2.266 1.128-.544.752-.817 1.865-.817 3.34zm10.302-.236c0-1.139.222-2.163.666-3.072.451-.91 1.075-1.612 1.87-2.106.801-.494 1.715-.74 2.739-.74 1.582 0 2.86.547 3.835 1.643.98 1.095 1.471 2.553 1.471 4.372v.14c0 1.13-.218 2.148-.655 3.05-.43.895-1.05 1.594-1.858 2.095-.802.501-1.726.752-2.772.752-1.575 0-2.854-.548-3.835-1.644-.974-1.095-1.46-2.546-1.46-4.35v-.14zm1.998.236c0 1.29.297 2.324.892 3.105.602.78 1.404 1.17 2.406 1.17 1.01 0 1.812-.393 2.406-1.18.595-.796.892-1.906.892-3.33 0-1.276-.304-2.307-.913-3.095-.602-.795-1.404-1.192-2.406-1.192-.981 0-1.773.39-2.374 1.17-.602.781-.903 1.899-.903 3.352z"/></defs></svg>