<svg width="38" height="35" viewBox="0 0 38 35" xmlns="http://www.w3.org/2000/svg" xmlns:xlink="http://www.w3.org/1999/xlink"><title>star-half</title><desc>Created using Figma</desc><g transform="translate(-819 -12)"><mask id="b"><use xlink:href="#a" transform="translate(816.65 9.481)" fill="#FFF"/></mask><g mask="url(#b)"><use xlink:href="#a" transform="translate(816.65 9.481)" fill="#98ACC4"/></g><g mask="url(#b)"><use xlink:href="#c" transform="translate(812)" fill="#0087F5"/></g></g><defs><path id="a" fill-rule="evenodd" d="M21.5 32.25l-9.05 4.758c-1.468.771-3.183-.474-2.902-2.108l1.728-10.078-7.322-7.137c-1.187-1.157-.532-3.173 1.109-3.412l10.118-1.47 4.525-9.169c.734-1.487 2.854-1.487 3.588 0l4.525 9.17 10.118 1.47c1.64.238 2.296 2.254 1.109 3.41l-7.322 7.138L33.452 34.9c.28 1.634-1.434 2.88-2.902 2.108L21.5 32.25z"/><path id="c" fill-rule="evenodd" d="M0 0h27v58H0V0z"/></defs></svg>